<?xml version="1.0" encoding="UTF-8"?><!DOCTYPE svg PUBLIC "-//W3C//DTD SVG 1.1//EN" "http://www.w3.org/Graphics/SVG/1.1/DTD/svg11.dtd"><svg xmlns="http://www.w3.org/2000/svg" xmlns:xlink="http://www.w3.org/1999/xlink"><defs>
        <linearGradient x1="50%" y1="0%" x2="50%" y2="100%" id="linearGradient-1">
            <stop stop-color="#B3B3B3" offset="0%"/>
            <stop stop-color="#B3B3B3" offset="50%"/>
            <stop stop-color="#7E7E7E" offset="100%"/>
        </linearGradient>
    </defs><symbol id="link-arrow" viewBox="0 0 13 24">
    <!-- Generator: Sketch 48.1 (47250) - http://www.bohemiancoding.com/sketch -->
    <title>link-arrow</title>
    <desc>Created with Sketch.</desc>
    
    <g id="Photos" stroke="none" stroke-width="1" fill="none" fill-rule="evenodd" transform="translate(-1137.000000, -690.000000)" stroke-linecap="round" stroke-opacity="0.899994339">
        <g id="Group-5" transform="translate(1137.000000, 690.000000)" stroke="#FFFFFF" stroke-width="4">
            <path d="M2,2 L10.118746,11.8409043 C10.1949549,11.9332787 10.1949549,12.0667213 10.118746,12.1590957 L2,22" id="link-arrow"/>
        </g>
    </g>
</symbol><symbol id="logo" viewBox="0 0 40 40">
    <!-- Generator: Sketch 48.2 (47327) - http://www.bohemiancoding.com/sketch -->
    <title>logo</title>
    <desc>Created with Sketch.</desc>
    
    <g id="Navigation" stroke="none" stroke-width="1" fill="none" fill-rule="evenodd" transform="translate(-237.000000, -17.000000)">
        <g id="Group-3">
            <g transform="translate(237.000000, 17.000000)">
                <g id="Group-4">
                    <g id="Group-5">
                        <g id="logo">
                            <circle id="Oval" fill="#303132" cx="20" cy="20" r="20"/>
                            <rect id="Rectangle-7" fill="url(#linearGradient-1)" transform="translate(27.250000, 20.736860) scale(-1, 1) rotate(-30.000000) translate(-27.250000, -20.736860) " x="24.75" y="12.7368603" width="5" height="16" rx="2.5"/>
                            <rect id="Rectangle-7" fill="#FFFFFF" transform="translate(12.750000, 20.736860) scale(-1, 1) rotate(-330.000000) translate(-12.750000, -20.736860) " x="10.25" y="12.7368603" width="5" height="16" rx="2.5"/>
                            <rect id="Rectangle-7" fill="#FFFFFF" transform="translate(21.750000, 20.736860) scale(-1, 1) rotate(-330.000000) translate(-21.750000, -20.736860) " x="19.25" y="12.7368603" width="5" height="16" rx="2.5"/>
                        </g>
                    </g>
                </g>
            </g>
        </g>
    </g>
</symbol><symbol id="separator" viewBox="0 0 30 14">
  <g fill="none" fill-rule="evenodd">
    <path stroke="#E6E6E6" stroke-linecap="square" stroke-width="2" d="M1,7 L29,7"/>
    <circle cx="15" cy="7" r="6" stroke="#E6E6E6" stroke-width="2"/>
  </g>
</symbol><symbol id="turntable" viewBox="0 0 12 12">
  <g fill="none" fill-rule="evenodd" stroke="#989A9C" stroke-linecap="round" stroke-width="2">
    <path d="M6 2L6 6M2.53589838 8L6 6M9.51794919 8.03108891L6.05384758 6.03108891"/>
  </g>
</symbol></svg>