<?xml version="1.0" encoding="UTF-8"?><!DOCTYPE svg PUBLIC "-//W3C//DTD SVG 1.1//EN" "http://www.w3.org/Graphics/SVG/1.1/DTD/svg11.dtd"><svg xmlns="http://www.w3.org/2000/svg"><symbol id="editor" viewBox="0 0 17 14"><g fill="none" fill-rule="evenodd" opacity=".295"><path fill="#565656" d="M5 1v12h1V1z"/><path fill="#565656" d="M1 2.006v9.988C1 12.551 1.448 13 2 13h13a1 1 0 0 0 1-1.006V2.006C16 1.449 15.552 1 15 1H2a1 1 0 0 0-1 1.006zm-1 0A2 2 0 0 1 2 0h13c1.105 0 2 .897 2 2.006v9.988A2 2 0 0 1 15 14H2c-1.105 0-2-.897-2-2.006V2.006z"/><path fill="#2F2F2F" fill-opacity=".497" d="M1 2h4v11H1z"/><path fill="#565656" d="M1 2h15V1H1zM7 4h5V3H7zM7 6h7V5H7zM7 8h4V7H7zM7 10h8V9H7z"/></g></symbol><symbol id="iphone" viewBox="0 0 11 20"><g fill="#2F2F2F" fill-rule="evenodd" opacity=".3"><path d="M4.5 3h2a.5.5 0 0 0 0-1h-2a.5.5 0 0 0 0 1z"/><circle cx="5.5" cy="17.5" r="1"/><path d="M1 1.99v16.02c0 .542.447.99.992.99h7.016a.997.997 0 0 0 .992-.99V1.99A.996.996 0 0 0 9.008 1H1.992A.997.997 0 0 0 1 1.99zm-1 0C0 .892.9 0 1.992 0h7.016C10.108 0 11 .898 11 1.99v16.02c0 1.099-.9 1.99-1.992 1.99H1.992C.892 20 0 19.102 0 18.01V1.99z"/><path fill-opacity=".5" d="M1 4h9v12H1z"/></g></symbol><symbol id="react" viewBox="0 0 19 17"><g fill="#2F2F2F" fill-rule="evenodd" opacity=".3"><circle cx="9.5" cy="8.5" r="1.5" fill-opacity=".5" stroke="#2F2F2F"/><path d="M9.5 10.5a2 2 0 1 0 0-4 2 2 0 0 0 0 4zm0-1a1 1 0 1 1 0-2 1 1 0 0 1 0 2z"/><path d="M.5 8.5c0 2.33 4.055 4 9 4s9-1.67 9-4-4.055-4-9-4-9 1.67-9 4zm1 0c0-1.536 3.557-3 8-3s8 1.464 8 3-3.557 3-8 3-8-1.464-8-3z"/><path d="M12.964 10.5C15.437 6.217 16.018 1.871 14 .706 11.982-.46 8.509 2.217 6.036 6.5 3.563 10.783 2.982 15.129 5 16.294c2.018 1.165 5.491-1.511 7.964-5.794zM6.902 7C9.124 3.152 12.17.804 13.5 1.572c1.33.768.82 4.58-1.402 8.428-2.222 3.848-5.268 6.196-6.598 5.428-1.33-.768-.82-4.58 1.402-8.428z"/><path d="M14 16.294c2.018-1.165 1.437-5.511-1.036-9.794S7.018-.46 5 .706C2.982 1.87 3.563 6.217 6.036 10.5s5.946 6.96 7.964 5.794zm-.5-.866c-1.33.768-4.376-1.58-6.598-5.428C4.68 6.152 4.17 2.34 5.5 1.572 6.83.804 9.876 3.152 12.098 7c2.222 3.848 2.732 7.66 1.402 8.428z"/></g></symbol></svg>