<?xml version="1.0" encoding="UTF-8"?><!DOCTYPE svg PUBLIC "-//W3C//DTD SVG 1.1//EN" "http://www.w3.org/Graphics/SVG/1.1/DTD/svg11.dtd"><svg xmlns="http://www.w3.org/2000/svg" xmlns:xlink="http://www.w3.org/1999/xlink"><defs>
    <linearGradient id="dots-a" x1="0%" y1="0%" y2="100%">
      <stop offset="0%" stop-color="#3CAFFF"/>
      <stop offset="100%" stop-color="#1C77FF"/>
    </linearGradient>
  
        <linearGradient x1="50%" y1="0%" x2="50%" y2="100%" id="linearGradient-1">
            <stop stop-color="#B3B3B3" offset="0%"/>
            <stop stop-color="#B3B3B3" offset="50%"/>
            <stop stop-color="#7E7E7E" offset="100%"/>
        </linearGradient>
    </defs><symbol id="dots" viewBox="0 0 257 706">
  
  <g fill="none" fill-rule="evenodd" transform="translate(3 -68)">
    <g stroke="#000" stroke-opacity=".05" stroke-width="5" transform="translate(0 296)">
      <circle cx="199.5" cy="51.5" r="51.5"/>
      <circle cx="199.5" cy="199.5" r="51.5"/>
      <circle cx="51.5" cy="51.5" r="51.5"/>
      <circle cx="51.5" cy="199.5" r="51.5"/>
    </g>
    <g stroke="#000" stroke-opacity=".05" stroke-width="5" transform="translate(0 592)">
      <circle cx="199.5" cy="51.5" r="51.5"/>
      <circle cx="199.5" cy="199.5" r="51.5"/>
      <circle cx="51.5" cy="51.5" r="51.5"/>
      <circle cx="51.5" cy="199.5" r="51.5"/>
    </g>
    <circle cx="199.5" cy="51.5" r="51.5" stroke="#000" stroke-opacity=".05" stroke-width="5"/>
    <circle cx="199.5" cy="199.5" r="51.5" stroke="#000" stroke-opacity=".05" stroke-width="5"/>
    <circle cx="51.5" cy="51.5" r="51.5" stroke="#000" stroke-opacity=".05" stroke-width="5"/>
    <circle cx="51.5" cy="199.5" r="51.5" fill="url(#dots-a)"/>
  </g>
</symbol><symbol id="link-arrow" viewBox="0 0 13 24">
    <!-- Generator: Sketch 48.1 (47250) - http://www.bohemiancoding.com/sketch -->
    <title>link-arrow</title>
    <desc>Created with Sketch.</desc>
    
    <g id="Photos" stroke="none" stroke-width="1" fill="none" fill-rule="evenodd" transform="translate(-1137.000000, -690.000000)" stroke-linecap="round" stroke-opacity="0.899994339">
        <g id="Group-5" transform="translate(1137.000000, 690.000000)" stroke="#FFFFFF" stroke-width="4">
            <path d="M2,2 L10.118746,11.8409043 C10.1949549,11.9332787 10.1949549,12.0667213 10.118746,12.1590957 L2,22" id="link-arrow"/>
        </g>
    </g>
</symbol><symbol id="logo" viewBox="0 0 38 38">
    <!-- Generator: Sketch 48.2 (47327) - http://www.bohemiancoding.com/sketch -->
    <title>logo</title>
    <desc>Created with Sketch.</desc>
    
    <g id="Navigation" stroke="none" stroke-width="1" fill="none" fill-rule="evenodd" transform="translate(-237.000000, -17.000000)">
        <g id="Group-3">
            <g transform="translate(237.000000, 17.000000)">
                <g id="Group-4">
                    <g id="Group-5">
                        <g id="logo">
                            <circle id="Oval" fill="#303132" cx="19" cy="19" r="19"/>
                            <rect id="Rectangle-7" fill="url(#linearGradient-1)" transform="translate(26.250000, 19.736860) scale(-1, 1) rotate(-30.000000) translate(-26.250000, -19.736860) " x="23.75" y="11.7368603" width="5" height="16" rx="2.5"/>
                            <rect id="Rectangle-7" fill="#FFFFFF" transform="translate(11.750000, 19.736860) scale(-1, 1) rotate(-330.000000) translate(-11.750000, -19.736860) " x="9.25" y="11.7368603" width="5" height="16" rx="2.5"/>
                            <rect id="Rectangle-7" fill="#FFFFFF" transform="translate(20.750000, 19.736860) scale(-1, 1) rotate(-330.000000) translate(-20.750000, -19.736860) " x="18.25" y="11.7368603" width="5" height="16" rx="2.5"/>
                        </g>
                    </g>
                </g>
            </g>
        </g>
    </g>
</symbol><symbol id="turntable" viewBox="0 0 40 40">
    <!-- Generator: Sketch 48.2 (47327) - http://www.bohemiancoding.com/sketch -->
    <title>turntable</title>
    <desc>Created with Sketch.</desc>
    
    <g id="Page-1" stroke="none" stroke-width="1" fill="none" fill-rule="evenodd">
        <g id="Group-18">
            <rect id="Rectangle" x="0" y="0" width="40" height="40"/>
            <path d="M19,19.4226497 L19,16 C19,15.4477153 19.4477153,15 20,15 C20.5522847,15 21,15.4477153 21,16 L21,19.4226497 L23.9641016,21.1339746 C24.4423942,21.410117 24.6062694,22.0217074 24.330127,22.5 C24.0539846,22.9782926 23.4423942,23.1421678 22.9641016,22.8660254 L20,21.1547005 L17.0358984,22.8660254 C16.5576058,23.1421678 15.9460154,22.9782926 15.669873,22.5 C15.3937306,22.0217074 15.5576058,21.410117 16.0358984,21.1339746 L19,19.4226497 Z" id="Rectangle-11" fill="#989A9C"/>
        </g>
    </g>
</symbol></svg>