<?xml version="1.0" encoding="UTF-8"?><!DOCTYPE svg PUBLIC "-//W3C//DTD SVG 1.1//EN" "http://www.w3.org/Graphics/SVG/1.1/DTD/svg11.dtd"><svg xmlns="http://www.w3.org/2000/svg" xmlns:xlink="http://www.w3.org/1999/xlink"><defs><path d="M13.275 5.62A16.968 16.968 0 0 1 0 12V4A8.983 8.983 0 0 0 7.028.622l6.247 4.998z" id="reflection-a"/></defs><symbol id="grid" viewBox="0 0 100 346"><title>grid</title><g fill="none" fill-rule="evenodd"><g fill="#B2B2B2"><circle cx="3.5" cy="3.5" r="3.5"/><circle cx="34.5" cy="3.5" r="3.5"/></g><g transform="translate(0 31)" fill="#D8D8D8"><circle cx="3.5" cy="3.5" r="3.5"/><circle cx="34.5" cy="3.5" r="3.5"/></g><g fill="#D8D8D8"><g transform="translate(62)"><circle cx="3.5" cy="3.5" r="3.5"/><circle cx="34.5" cy="3.5" r="3.5"/></g><g transform="translate(62 31)"><circle cx="3.5" cy="3.5" r="3.5"/><circle cx="34.5" cy="3.5" r="3.5"/></g></g><g fill="#D8D8D8"><g transform="translate(0 62)"><circle cx="3.5" cy="3.5" r="3.5"/><circle cx="34.5" cy="3.5" r="3.5"/></g><g transform="translate(0 93)"><circle cx="3.5" cy="3.5" r="3.5"/><circle cx="34.5" cy="3.5" r="3.5"/></g></g><g fill="#D8D8D8"><g transform="translate(62 62)"><circle cx="3.5" cy="3.5" r="3.5"/><circle cx="34.5" cy="3.5" r="3.5"/></g><g transform="translate(62 93)"><circle cx="3.5" cy="3.5" r="3.5"/><circle cx="34.5" cy="3.5" r="3.5"/></g></g><g fill="#D8D8D8"><g transform="translate(0 123)"><circle cx="3.5" cy="3.5" r="3.5"/><circle cx="34.5" cy="3.5" r="3.5"/></g><g transform="translate(0 154)"><circle cx="3.5" cy="3.5" r="3.5"/><circle cx="34.5" cy="3.5" r="3.5"/></g><g transform="translate(62 123)"><circle cx="3.5" cy="3.5" r="3.5"/><circle cx="34.5" cy="3.5" r="3.5"/></g><g transform="translate(62 154)"><circle cx="3.5" cy="3.5" r="3.5"/><circle cx="34.5" cy="3.5" r="3.5"/></g><g><g transform="translate(0 185)"><circle cx="3.5" cy="3.5" r="3.5"/><circle cx="34.5" cy="3.5" r="3.5"/></g><g transform="translate(0 216)"><circle cx="3.5" cy="3.5" r="3.5"/><circle cx="34.5" cy="3.5" r="3.5"/></g></g><g><g transform="translate(62 185)"><circle cx="3.5" cy="3.5" r="3.5"/><circle cx="34.5" cy="3.5" r="3.5"/></g><g transform="translate(62 216)"><circle cx="3.5" cy="3.5" r="3.5"/><circle cx="34.5" cy="3.5" r="3.5"/></g></g></g><g fill="#D8D8D8"><g transform="translate(0 246)"><circle cx="3.5" cy="3.5" r="3.5"/><circle cx="34.5" cy="3.5" r="3.5"/></g><g transform="translate(0 277)"><circle cx="3.5" cy="3.5" r="3.5"/><circle cx="34.5" cy="3.5" r="3.5"/></g><g transform="translate(62 246)"><circle cx="3.5" cy="3.5" r="3.5"/><circle cx="34.5" cy="3.5" r="3.5"/></g><g transform="translate(62 277)"><circle cx="3.5" cy="3.5" r="3.5"/><circle cx="34.5" cy="3.5" r="3.5"/></g><g><g transform="translate(0 308)"><circle cx="3.5" cy="3.5" r="3.5"/><circle cx="34.5" cy="3.5" r="3.5"/></g><g transform="translate(0 339)"><circle cx="3.5" cy="3.5" r="3.5"/><circle cx="34.5" cy="3.5" r="3.5"/></g></g><g><g transform="translate(62 308)"><circle cx="3.5" cy="3.5" r="3.5"/><circle cx="34.5" cy="3.5" r="3.5"/></g><g transform="translate(62 339)"><circle cx="3.5" cy="3.5" r="3.5"/><circle cx="34.5" cy="3.5" r="3.5"/></g></g></g><g fill="#D8D8D8"><g><circle cx="3.5" cy="3.5" r="3.5"/><circle cx="34.5" cy="3.5" r="3.5"/></g><g transform="translate(0 31)"><circle cx="3.5" cy="3.5" r="3.5"/><circle cx="34.5" cy="3.5" r="3.5"/></g><g transform="translate(62)"><circle cx="3.5" cy="3.5" r="3.5"/><circle cx="34.5" cy="3.5" r="3.5"/></g><g transform="translate(62 31)"><circle cx="3.5" cy="3.5" r="3.5"/><circle cx="34.5" cy="3.5" r="3.5"/></g><g><g transform="translate(0 62)"><circle cx="3.5" cy="3.5" r="3.5"/><circle cx="34.5" cy="3.5" r="3.5"/></g><g transform="translate(0 93)"><circle cx="3.5" cy="3.5" r="3.5"/><circle cx="34.5" cy="3.5" r="3.5"/></g></g><g><g transform="translate(62 62)"><circle cx="3.5" cy="3.5" r="3.5"/><circle cx="34.5" cy="3.5" r="3.5"/></g><g transform="translate(62 93)"><circle cx="3.5" cy="3.5" r="3.5"/><circle cx="34.5" cy="3.5" r="3.5"/></g></g><g><g transform="translate(0 123)"><circle cx="3.5" cy="3.5" r="3.5"/><circle cx="34.5" cy="3.5" r="3.5"/></g><g transform="translate(0 154)"><circle cx="3.5" cy="3.5" r="3.5"/><circle cx="34.5" cy="3.5" r="3.5"/></g><g transform="translate(62 123)"><circle cx="3.5" cy="3.5" r="3.5"/><circle cx="34.5" cy="3.5" r="3.5"/></g><g transform="translate(62 154)"><circle cx="3.5" cy="3.5" r="3.5"/><circle cx="34.5" cy="3.5" r="3.5"/></g><g><g transform="translate(0 185)"><circle cx="3.5" cy="3.5" r="3.5"/><circle cx="34.5" cy="3.5" r="3.5"/></g><g transform="translate(0 216)"><circle cx="3.5" cy="3.5" r="3.5"/><circle cx="34.5" cy="3.5" r="3.5"/></g></g><g><g transform="translate(62 185)"><circle cx="3.5" cy="3.5" r="3.5"/><circle cx="34.5" cy="3.5" r="3.5"/></g><g transform="translate(62 216)"><circle cx="3.5" cy="3.5" r="3.5"/><circle cx="34.5" cy="3.5" r="3.5"/></g></g></g><g><g transform="translate(0 246)"><circle cx="3.5" cy="3.5" r="3.5"/><circle cx="34.5" cy="3.5" r="3.5"/></g><g transform="translate(0 277)"><circle cx="3.5" cy="3.5" r="3.5"/><circle cx="34.5" cy="3.5" r="3.5"/></g><g transform="translate(62 246)"><circle cx="3.5" cy="3.5" r="3.5"/><circle cx="34.5" cy="3.5" r="3.5"/></g><g transform="translate(62 277)"><circle cx="3.5" cy="3.5" r="3.5"/><circle cx="34.5" cy="3.5" r="3.5"/></g><g><g transform="translate(0 308)"><circle cx="3.5" cy="3.5" r="3.5"/><circle cx="34.5" cy="3.5" r="3.5"/></g><g transform="translate(0 339)"><circle cx="3.5" cy="3.5" r="3.5"/><circle cx="34.5" cy="3.5" r="3.5"/></g></g><g><g transform="translate(62 308)"><circle cx="3.5" cy="3.5" r="3.5"/><circle cx="34.5" cy="3.5" r="3.5"/></g><g transform="translate(62 339)"><circle cx="3.5" cy="3.5" r="3.5"/><circle cx="34.5" cy="3.5" r="3.5"/></g></g></g></g></g></symbol><symbol id="link-arrow" viewBox="0 0 13 24"><title>link-arrow</title><path d="M2 2l8.119 9.84a.25.25 0 0 1 0 .32L2 22" stroke="#FFF" stroke-width="4" fill="none" fill-rule="evenodd" stroke-linecap="round" stroke-opacity=".9"/></symbol><symbol id="reflection" viewBox="0 0 40 40"><title>Group 16</title><use fill="#F5F7F7" xlink:href="#reflection-a" transform="translate(20 25)" fill-rule="evenodd"/></symbol></svg>