<svg xmlns="http://www.w3.org/2000/svg" width="17" height="14" viewBox="0 0 17 14">
  <g fill="none" fill-rule="evenodd" opacity=".295">
    <polygon fill="#565656" points="5 1 5 13 6 13 6 1"/>
    <path fill="#565656" d="M1,2.00585866 L1,11.9941413 C1,12.5508776 1.44798768,13 2.00010618,13 L14.9998938,13 C15.55472,13 16,12.5526019 16,11.9941413 L16,2.00585866 C16,1.44912244 15.5520123,1 14.9998938,1 L2.00010618,1 C1.44528002,1 1,1.44739807 1,2.00585866 Z M0,2.00585866 C0,0.898053512 0.890058413,0 2.00010618,0 L14.9998938,0 C16.104522,0 17,0.897060126 17,2.00585866 L17,11.9941413 C17,13.1019465 16.1099416,14 14.9998938,14 L2.00010618,14 C0.895478039,14 0,13.1029399 0,11.9941413 L0,2.00585866 Z"/>
    <rect width="4" height="11" x="1" y="2" fill="#2F2F2F" fill-opacity=".497"/>
    <polygon fill="#565656" points="1 2 16 2 16 1 1 1"/>
    <polygon fill="#565656" points="7 4 12 4 12 3 7 3"/>
    <polygon fill="#565656" points="7 6 14 6 14 5 7 5"/>
    <polygon fill="#565656" points="7 8 11 8 11 7 7 7"/>
    <polygon fill="#565656" points="7 10 15 10 15 9 7 9"/>
  </g>
</svg>
