<?xml version="1.0" encoding="UTF-8"?>
<svg width="100px" height="346px" viewBox="0 0 100 346" version="1.1" xmlns="http://www.w3.org/2000/svg" xmlns:xlink="http://www.w3.org/1999/xlink">
    <!-- Generator: Sketch 48.2 (47327) - http://www.bohemiancoding.com/sketch -->
    <title>grid</title>
    <desc>Created with Sketch.</desc>
    <defs></defs>
    <g id="Home" stroke="none" stroke-width="1" fill="none" fill-rule="evenodd" transform="translate(-200.000000, -250.000000)">
        <g id="grid" transform="translate(200.000000, 250.000000)">
            <g id="Group-4">
                <g id="Group-3">
                    <g id="Group-2" fill="#B2B2B2">
                        <circle id="Oval" cx="3.5" cy="3.5" r="3.5"></circle>
                        <circle id="Oval" cx="34.5" cy="3.5" r="3.5"></circle>
                    </g>
                    <g id="Group-2" transform="translate(0.000000, 31.000000)" fill="#D8D8D8">
                        <circle id="Oval" cx="3.5" cy="3.5" r="3.5"></circle>
                        <circle id="Oval" cx="34.5" cy="3.5" r="3.5"></circle>
                    </g>
                </g>
                <g id="Group-3" transform="translate(62.000000, 0.000000)" fill="#D8D8D8">
                    <g id="Group-2">
                        <circle id="Oval" cx="3.5" cy="3.5" r="3.5"></circle>
                        <circle id="Oval" cx="34.5" cy="3.5" r="3.5"></circle>
                    </g>
                    <g id="Group-2" transform="translate(0.000000, 31.000000)">
                        <circle id="Oval" cx="3.5" cy="3.5" r="3.5"></circle>
                        <circle id="Oval" cx="34.5" cy="3.5" r="3.5"></circle>
                    </g>
                </g>
                <g id="Group-3" transform="translate(0.000000, 62.000000)" fill="#D8D8D8">
                    <g id="Group-2">
                        <circle id="Oval" cx="3.5" cy="3.5" r="3.5"></circle>
                        <circle id="Oval" cx="34.5" cy="3.5" r="3.5"></circle>
                    </g>
                    <g id="Group-2" transform="translate(0.000000, 31.000000)">
                        <circle id="Oval" cx="3.5" cy="3.5" r="3.5"></circle>
                        <circle id="Oval" cx="34.5" cy="3.5" r="3.5"></circle>
                    </g>
                </g>
                <g id="Group-3" transform="translate(62.000000, 62.000000)" fill="#D8D8D8">
                    <g id="Group-2">
                        <circle id="Oval" cx="3.5" cy="3.5" r="3.5"></circle>
                        <circle id="Oval" cx="34.5" cy="3.5" r="3.5"></circle>
                    </g>
                    <g id="Group-2" transform="translate(0.000000, 31.000000)">
                        <circle id="Oval" cx="3.5" cy="3.5" r="3.5"></circle>
                        <circle id="Oval" cx="34.5" cy="3.5" r="3.5"></circle>
                    </g>
                </g>
            </g>
            <g id="Group-4" transform="translate(0.000000, 123.000000)" fill="#D8D8D8">
                <g id="Group-3">
                    <g id="Group-2">
                        <circle id="Oval" cx="3.5" cy="3.5" r="3.5"></circle>
                        <circle id="Oval" cx="34.5" cy="3.5" r="3.5"></circle>
                    </g>
                    <g id="Group-2" transform="translate(0.000000, 31.000000)">
                        <circle id="Oval" cx="3.5" cy="3.5" r="3.5"></circle>
                        <circle id="Oval" cx="34.5" cy="3.5" r="3.5"></circle>
                    </g>
                </g>
                <g id="Group-3" transform="translate(62.000000, 0.000000)">
                    <g id="Group-2">
                        <circle id="Oval" cx="3.5" cy="3.5" r="3.5"></circle>
                        <circle id="Oval" cx="34.5" cy="3.5" r="3.5"></circle>
                    </g>
                    <g id="Group-2" transform="translate(0.000000, 31.000000)">
                        <circle id="Oval" cx="3.5" cy="3.5" r="3.5"></circle>
                        <circle id="Oval" cx="34.5" cy="3.5" r="3.5"></circle>
                    </g>
                </g>
                <g id="Group-3" transform="translate(0.000000, 62.000000)">
                    <g id="Group-2">
                        <circle id="Oval" cx="3.5" cy="3.5" r="3.5"></circle>
                        <circle id="Oval" cx="34.5" cy="3.5" r="3.5"></circle>
                    </g>
                    <g id="Group-2" transform="translate(0.000000, 31.000000)">
                        <circle id="Oval" cx="3.5" cy="3.5" r="3.5"></circle>
                        <circle id="Oval" cx="34.5" cy="3.5" r="3.5"></circle>
                    </g>
                </g>
                <g id="Group-3" transform="translate(62.000000, 62.000000)">
                    <g id="Group-2">
                        <circle id="Oval" cx="3.5" cy="3.5" r="3.5"></circle>
                        <circle id="Oval" cx="34.5" cy="3.5" r="3.5"></circle>
                    </g>
                    <g id="Group-2" transform="translate(0.000000, 31.000000)">
                        <circle id="Oval" cx="3.5" cy="3.5" r="3.5"></circle>
                        <circle id="Oval" cx="34.5" cy="3.5" r="3.5"></circle>
                    </g>
                </g>
            </g>
            <g id="Group-4" transform="translate(0.000000, 246.000000)" fill="#D8D8D8">
                <g id="Group-3">
                    <g id="Group-2">
                        <circle id="Oval" cx="3.5" cy="3.5" r="3.5"></circle>
                        <circle id="Oval" cx="34.5" cy="3.5" r="3.5"></circle>
                    </g>
                    <g id="Group-2" transform="translate(0.000000, 31.000000)">
                        <circle id="Oval" cx="3.5" cy="3.5" r="3.5"></circle>
                        <circle id="Oval" cx="34.5" cy="3.5" r="3.5"></circle>
                    </g>
                </g>
                <g id="Group-3" transform="translate(62.000000, 0.000000)">
                    <g id="Group-2">
                        <circle id="Oval" cx="3.5" cy="3.5" r="3.5"></circle>
                        <circle id="Oval" cx="34.5" cy="3.5" r="3.5"></circle>
                    </g>
                    <g id="Group-2" transform="translate(0.000000, 31.000000)">
                        <circle id="Oval" cx="3.5" cy="3.5" r="3.5"></circle>
                        <circle id="Oval" cx="34.5" cy="3.5" r="3.5"></circle>
                    </g>
                </g>
                <g id="Group-3" transform="translate(0.000000, 62.000000)">
                    <g id="Group-2">
                        <circle id="Oval" cx="3.5" cy="3.5" r="3.5"></circle>
                        <circle id="Oval" cx="34.5" cy="3.5" r="3.5"></circle>
                    </g>
                    <g id="Group-2" transform="translate(0.000000, 31.000000)">
                        <circle id="Oval" cx="3.5" cy="3.5" r="3.5"></circle>
                        <circle id="Oval" cx="34.5" cy="3.5" r="3.5"></circle>
                    </g>
                </g>
                <g id="Group-3" transform="translate(62.000000, 62.000000)">
                    <g id="Group-2">
                        <circle id="Oval" cx="3.5" cy="3.5" r="3.5"></circle>
                        <circle id="Oval" cx="34.5" cy="3.5" r="3.5"></circle>
                    </g>
                    <g id="Group-2" transform="translate(0.000000, 31.000000)">
                        <circle id="Oval" cx="3.5" cy="3.5" r="3.5"></circle>
                        <circle id="Oval" cx="34.5" cy="3.5" r="3.5"></circle>
                    </g>
                </g>
            </g>
        </g>
        <g id="grid" transform="translate(200.000000, 250.000000)" fill="#D8D8D8">
            <g id="Group-4">
                <g id="Group-3">
                    <g id="Group-2">
                        <circle id="Oval" cx="3.5" cy="3.5" r="3.5"></circle>
                        <circle id="Oval" cx="34.5" cy="3.5" r="3.5"></circle>
                    </g>
                    <g id="Group-2" transform="translate(0.000000, 31.000000)">
                        <circle id="Oval" cx="3.5" cy="3.5" r="3.5"></circle>
                        <circle id="Oval" cx="34.5" cy="3.5" r="3.5"></circle>
                    </g>
                </g>
                <g id="Group-3" transform="translate(62.000000, 0.000000)">
                    <g id="Group-2">
                        <circle id="Oval" cx="3.5" cy="3.5" r="3.5"></circle>
                        <circle id="Oval" cx="34.5" cy="3.5" r="3.5"></circle>
                    </g>
                    <g id="Group-2" transform="translate(0.000000, 31.000000)">
                        <circle id="Oval" cx="3.5" cy="3.5" r="3.5"></circle>
                        <circle id="Oval" cx="34.5" cy="3.5" r="3.5"></circle>
                    </g>
                </g>
                <g id="Group-3" transform="translate(0.000000, 62.000000)">
                    <g id="Group-2">
                        <circle id="Oval" cx="3.5" cy="3.5" r="3.5"></circle>
                        <circle id="Oval" cx="34.5" cy="3.5" r="3.5"></circle>
                    </g>
                    <g id="Group-2" transform="translate(0.000000, 31.000000)">
                        <circle id="Oval" cx="3.5" cy="3.5" r="3.5"></circle>
                        <circle id="Oval" cx="34.5" cy="3.5" r="3.5"></circle>
                    </g>
                </g>
                <g id="Group-3" transform="translate(62.000000, 62.000000)">
                    <g id="Group-2">
                        <circle id="Oval" cx="3.5" cy="3.5" r="3.5"></circle>
                        <circle id="Oval" cx="34.5" cy="3.5" r="3.5"></circle>
                    </g>
                    <g id="Group-2" transform="translate(0.000000, 31.000000)">
                        <circle id="Oval" cx="3.5" cy="3.5" r="3.5"></circle>
                        <circle id="Oval" cx="34.5" cy="3.5" r="3.5"></circle>
                    </g>
                </g>
            </g>
            <g id="Group-4" transform="translate(0.000000, 123.000000)">
                <g id="Group-3">
                    <g id="Group-2">
                        <circle id="Oval" cx="3.5" cy="3.5" r="3.5"></circle>
                        <circle id="Oval" cx="34.5" cy="3.5" r="3.5"></circle>
                    </g>
                    <g id="Group-2" transform="translate(0.000000, 31.000000)">
                        <circle id="Oval" cx="3.5" cy="3.5" r="3.5"></circle>
                        <circle id="Oval" cx="34.5" cy="3.5" r="3.5"></circle>
                    </g>
                </g>
                <g id="Group-3" transform="translate(62.000000, 0.000000)">
                    <g id="Group-2">
                        <circle id="Oval" cx="3.5" cy="3.5" r="3.5"></circle>
                        <circle id="Oval" cx="34.5" cy="3.5" r="3.5"></circle>
                    </g>
                    <g id="Group-2" transform="translate(0.000000, 31.000000)">
                        <circle id="Oval" cx="3.5" cy="3.5" r="3.5"></circle>
                        <circle id="Oval" cx="34.5" cy="3.5" r="3.5"></circle>
                    </g>
                </g>
                <g id="Group-3" transform="translate(0.000000, 62.000000)">
                    <g id="Group-2">
                        <circle id="Oval" cx="3.5" cy="3.5" r="3.5"></circle>
                        <circle id="Oval" cx="34.5" cy="3.5" r="3.5"></circle>
                    </g>
                    <g id="Group-2" transform="translate(0.000000, 31.000000)">
                        <circle id="Oval" cx="3.5" cy="3.5" r="3.5"></circle>
                        <circle id="Oval" cx="34.5" cy="3.5" r="3.5"></circle>
                    </g>
                </g>
                <g id="Group-3" transform="translate(62.000000, 62.000000)">
                    <g id="Group-2">
                        <circle id="Oval" cx="3.5" cy="3.5" r="3.5"></circle>
                        <circle id="Oval" cx="34.5" cy="3.5" r="3.5"></circle>
                    </g>
                    <g id="Group-2" transform="translate(0.000000, 31.000000)">
                        <circle id="Oval" cx="3.5" cy="3.5" r="3.5"></circle>
                        <circle id="Oval" cx="34.5" cy="3.5" r="3.5"></circle>
                    </g>
                </g>
            </g>
            <g id="Group-4" transform="translate(0.000000, 246.000000)">
                <g id="Group-3">
                    <g id="Group-2">
                        <circle id="Oval" cx="3.5" cy="3.5" r="3.5"></circle>
                        <circle id="Oval" cx="34.5" cy="3.5" r="3.5"></circle>
                    </g>
                    <g id="Group-2" transform="translate(0.000000, 31.000000)">
                        <circle id="Oval" cx="3.5" cy="3.5" r="3.5"></circle>
                        <circle id="Oval" cx="34.5" cy="3.5" r="3.5"></circle>
                    </g>
                </g>
                <g id="Group-3" transform="translate(62.000000, 0.000000)">
                    <g id="Group-2">
                        <circle id="Oval" cx="3.5" cy="3.5" r="3.5"></circle>
                        <circle id="Oval" cx="34.5" cy="3.5" r="3.5"></circle>
                    </g>
                    <g id="Group-2" transform="translate(0.000000, 31.000000)">
                        <circle id="Oval" cx="3.5" cy="3.5" r="3.5"></circle>
                        <circle id="Oval" cx="34.5" cy="3.5" r="3.5"></circle>
                    </g>
                </g>
                <g id="Group-3" transform="translate(0.000000, 62.000000)">
                    <g id="Group-2">
                        <circle id="Oval" cx="3.5" cy="3.5" r="3.5"></circle>
                        <circle id="Oval" cx="34.5" cy="3.5" r="3.5"></circle>
                    </g>
                    <g id="Group-2" transform="translate(0.000000, 31.000000)">
                        <circle id="Oval" cx="3.5" cy="3.5" r="3.5"></circle>
                        <circle id="Oval" cx="34.5" cy="3.5" r="3.5"></circle>
                    </g>
                </g>
                <g id="Group-3" transform="translate(62.000000, 62.000000)">
                    <g id="Group-2">
                        <circle id="Oval" cx="3.5" cy="3.5" r="3.5"></circle>
                        <circle id="Oval" cx="34.5" cy="3.5" r="3.5"></circle>
                    </g>
                    <g id="Group-2" transform="translate(0.000000, 31.000000)">
                        <circle id="Oval" cx="3.5" cy="3.5" r="3.5"></circle>
                        <circle id="Oval" cx="34.5" cy="3.5" r="3.5"></circle>
                    </g>
                </g>
            </g>
        </g>
    </g>
</svg>