<svg xmlns="http://www.w3.org/2000/svg" width="11" height="20" viewBox="0 0 11 20">
  <g fill="#2F2F2F" fill-rule="evenodd" opacity=".3">
    <path d="M4.5,3 L6.5,3 C6.77614237,3 7,2.77614237 7,2.5 C7,2.22385763 6.77614237,2 6.5,2 L4.5,2 C4.22385763,2 4,2.22385763 4,2.5 C4,2.77614237 4.22385763,3 4.5,3 Z"/>
    <circle cx="5.5" cy="17.5" r="1"/>
    <path d="M1,1.99079514 L1,18.0092049 C1,18.5522848 1.44691959,19 1.99201702,19 L9.00798298,19 C9.55119322,19 10,18.5527588 10,18.0092049 L10,1.99079514 C10,1.44771523 9.55308041,1 9.00798298,1 L1.99201702,1 C1.44880678,1 1,1.44724123 1,1.99079514 Z M0,1.99079514 C0,0.891309342 0.900176167,0 1.99201702,0 L9.00798298,0 C10.1081436,0 11,0.898212381 11,1.99079514 L11,18.0092049 C11,19.1086907 10.0998238,20 9.00798298,20 L1.99201702,20 C0.891856397,20 0,19.1017876 0,18.0092049 L0,1.99079514 Z"/>
    <rect width="9" height="12" x="1" y="4" fill-opacity=".5"/>
  </g>
</svg>
