<svg xmlns="http://www.w3.org/2000/svg" width="19" height="17" viewBox="0 0 19 17">
  <g fill="#2F2F2F" fill-rule="evenodd" opacity=".3">
    <circle cx="9.5" cy="8.5" r="1.5" fill-opacity=".5" stroke="#2F2F2F"/>
    <path d="M9.5,10.5 C10.6045695,10.5 11.5,9.6045695 11.5,8.5 C11.5,7.3954305 10.6045695,6.5 9.5,6.5 C8.3954305,6.5 7.5,7.3954305 7.5,8.5 C7.5,9.6045695 8.3954305,10.5 9.5,10.5 Z M9.5,9.5 C8.94771525,9.5 8.5,9.05228475 8.5,8.5 C8.5,7.94771525 8.94771525,7.5 9.5,7.5 C10.0522847,7.5 10.5,7.94771525 10.5,8.5 C10.5,9.05228475 10.0522847,9.5 9.5,9.5 Z"/>
    <path d="M0.5,8.5 C0.5,10.8304388 4.55464855,12.5 9.5,12.5 C14.4453515,12.5 18.5,10.8304388 18.5,8.5 C18.5,6.16956117 14.4453515,4.5 9.5,4.5 C4.55464855,4.5 0.5,6.16956117 0.5,8.5 Z M1.5,8.5 C1.5,6.96444558 5.0565107,5.5 9.5,5.5 C13.9434893,5.5 17.5,6.96444558 17.5,8.5 C17.5,10.0355544 13.9434893,11.5 9.5,11.5 C5.0565107,11.5 1.5,10.0355544 1.5,8.5 Z"/>
    <path d="M12.9641016,10.5 C15.4367773,6.21720001 16.0182192,1.87099078 14,0.705771366 C11.9817808,-0.45944805 8.50857411,2.21720001 6.03589838,6.5 C3.56322266,10.7828 2.98178077,15.1290092 5,16.2942286 C7.01821923,17.4594481 10.4914259,14.7828 12.9641016,10.5 Z M6.90192379,7 C9.12366844,3.15182539 12.1701709,0.804019562 13.5,1.57179677 C14.8298291,2.33957398 14.3198209,6.15182539 12.0980762,10 C9.87633156,13.8481746 6.82982913,16.1959804 5.5,15.4282032 C4.17017087,14.660426 4.68017914,10.8481746 6.90192379,7 Z"/>
    <path d="M14,16.2942286 C16.0182192,15.1290092 15.4367773,10.7828 12.9641016,6.5 C10.4914259,2.21720001 7.01821923,-0.45944805 5,0.705771366 C2.98178077,1.87099078 3.56322266,6.21720001 6.03589838,10.5 C8.50857411,14.7828 11.9817808,17.4594481 14,16.2942286 Z M13.5,15.4282032 C12.1701709,16.1959804 9.12366844,13.8481746 6.90192379,10 C4.68017914,6.15182539 4.17017087,2.33957398 5.5,1.57179677 C6.82982913,0.804019562 9.87633156,3.15182539 12.0980762,7 C14.3198209,10.8481746 14.8298291,14.660426 13.5,15.4282032 Z"/>
  </g>
</svg>
