<svg xmlns="http://www.w3.org/2000/svg" width="16" height="16" viewBox="0 0 16 16">
  <path fill-rule="evenodd" d="M11.68,12.9056406 C10.9147318,13.3474684 9.93618715,13.0852682 9.49435935,12.32 L5.97435935,6.22318116 C5.53253155,5.45791296 5.7947318,4.47936831 6.56,4.03754051 C7.3252682,3.59571271 8.30381285,3.85791296 8.74564065,4.62318116 L10.88,8.32 L13.0143594,4.62318116 C13.4561872,3.85791296 14.4347318,3.59571271 15.2,4.03754051 C15.9652682,4.47936831 16.2274684,5.45791296 15.7856406,6.22318116 L12.2795066,12.2959835 C12.1435123,12.5418024 11.9410187,12.7549414 11.68,12.9056406 Z M0.8,4.03754051 C1.5652682,3.59571271 2.54381285,3.85791296 2.98564065,4.62318116 L6.50564065,10.72 C6.94746845,11.4852682 6.6852682,12.4638128 5.92,12.9056406 C5.1547318,13.3474684 4.17618715,13.0852682 3.73435935,12.32 L0.214359354,6.22318116 C-0.227468446,5.45791296 0.0347318024,4.47936831 0.8,4.03754051 Z"/>
</svg>
